<svg xmlns="http://www.w3.org/2000/svg" viewBox="0 0 512 512" role="img" aria-label="AgriPulse">
  <defs>
    <linearGradient id="bg" x1="0" y1="0" x2="512" y2="512" gradientUnits="userSpaceOnUse">
      <stop offset="0%" stop-color="#059669"/>
      <stop offset="100%" stop-color="#047857"/>
    </linearGradient>
    <linearGradient id="leaf" x1="160" y1="100" x2="370" y2="420" gradientUnits="userSpaceOnUse">
      <stop offset="0%" stop-color="#bbf7d0"/>
      <stop offset="100%" stop-color="#6ee7b7"/>
    </linearGradient>
  </defs>
  <rect width="512" height="512" fill="url(#bg)"/>
  <circle cx="256" cy="230" r="140" fill="none" stroke="rgba(255,255,255,0.12)" stroke-width="5" stroke-dasharray="10 10"/>
  <path d="M256 90c-80 38-134 107-134 192 0 48 32 80 75 88 54 10 118-28 145-92 24-58 0-123-86-188z" fill="url(#leaf)"/>
  <path d="M187 348c48-85 91-150 139-203" fill="none" stroke="#059669" stroke-width="14" stroke-linecap="round" opacity="0.7"/>
  <path d="M213 290c35 4 65-3 91-24" fill="none" stroke="#059669" stroke-width="11" stroke-linecap="round" opacity="0.6"/>
  <path d="M192 325c27 4 51-1 73-16" fill="none" stroke="#059669" stroke-width="11" stroke-linecap="round" opacity="0.6"/>
  <circle cx="322" cy="178" r="11" fill="#fbbf24" opacity="0.9"/>
  <circle cx="290" cy="135" r="8" fill="#f97316" opacity="0.8"/>
  <circle cx="348" cy="216" r="7" fill="#ef4444" opacity="0.7"/>
  <circle cx="256" cy="436" r="42" fill="none" stroke="rgba(255,255,255,0.18)" stroke-width="4"/>
  <path d="M240 426l10 10 22-22" fill="none" stroke="white" stroke-width="5" stroke-linecap="round" stroke-linejoin="round" opacity="0.8"/>
</svg>
