<svg xmlns="http://www.w3.org/2000/svg" viewBox="0 0 192 192" role="img" aria-label="AgriPulse">
  <defs>
    <linearGradient id="bg" x1="0" y1="0" x2="192" y2="192" gradientUnits="userSpaceOnUse">
      <stop offset="0%" stop-color="#059669"/>
      <stop offset="100%" stop-color="#047857"/>
    </linearGradient>
    <linearGradient id="leaf" x1="60" y1="40" x2="140" y2="160" gradientUnits="userSpaceOnUse">
      <stop offset="0%" stop-color="#bbf7d0"/>
      <stop offset="100%" stop-color="#6ee7b7"/>
    </linearGradient>
    <filter id="glow">
      <feGaussianBlur stdDeviation="3" result="blur"/>
      <feMerge><feMergeNode in="blur"/><feMergeNode in="SourceGraphic"/></feMerge>
    </filter>
  </defs>
  <rect width="192" height="192" rx="44" fill="url(#bg)"/>
  <circle cx="96" cy="88" r="52" fill="none" stroke="rgba(255,255,255,0.15)" stroke-width="2" stroke-dasharray="4 4"/>
  <path d="M96 40c-30 14-50 40-50 72 0 18 12 30 28 33 20 4 44-10 54-34 9-22 0-46-32-71z" fill="url(#leaf)" filter="url(#glow)"/>
  <path d="M70 130c18-32 34-56 52-76" fill="none" stroke="#059669" stroke-width="5" stroke-linecap="round" opacity="0.7"/>
  <path d="M80 108c13 1.5 24-1 34-9" fill="none" stroke="#059669" stroke-width="4" stroke-linecap="round" opacity="0.6"/>
  <path d="M72 122c10 1.5 19-.5 27-6" fill="none" stroke="#059669" stroke-width="4" stroke-linecap="round" opacity="0.6"/>
  <circle cx="120" cy="68" r="4" fill="#fbbf24" opacity="0.9"/>
  <circle cx="108" cy="52" r="3" fill="#f97316" opacity="0.8"/>
  <circle cx="130" cy="82" r="2.5" fill="#ef4444" opacity="0.7"/>
  <circle cx="96" cy="162" r="16" fill="none" stroke="rgba(255,255,255,0.2)" stroke-width="1.5"/>
  <path d="M90 158l4 4 8-8" fill="none" stroke="white" stroke-width="2" stroke-linecap="round" stroke-linejoin="round" opacity="0.8"/>
</svg>
